name sv07_filtered_grf.mot
datacolumns 37
datarows 12
range 1.437000 1.442500
endheader
time	1_ground_force_vx	1_ground_force_vy	1_ground_force_vz	1_ground_force_px	1_ground_force_py	1_ground_force_pz	1_ground_torque_x	1_ground_torque_y	1_ground_torque_z	2_ground_force_vx	2_ground_force_vy	2_ground_force_vz	2_ground_force_px	2_ground_force_py	2_ground_force_pz	2_ground_torque_x	2_ground_torque_y	2_ground_torque_z	3_ground_force_vx	3_ground_force_vy	3_ground_force_vz	3_ground_force_px	3_ground_force_py	3_ground_force_pz	3_ground_torque_x	3_ground_torque_y	3_ground_torque_z	4_ground_force_vx	4_ground_force_vy	4_ground_force_vz	4_ground_force_px	4_ground_force_py	4_ground_force_pz	4_ground_torque_x	4_ground_torque_y	4_ground_torque_z
            1.437000	          -17.370794	          223.201618	           23.191283	            0.179147	            0.000000	            0.226132	           -0.378805	            4.867356	            0.505732	           66.836886	          443.237312	           21.054698	           -0.208510	            0.000000	            0.242832	            0.233248	            1.546811	            0.073477	           17.621337	            1.156413	           -1.600488	            0.381627	            1.022295	            1.096429	           -0.083437	           -0.005476	            0.007578	          -12.280274	            1.477812	           -0.030810	           -0.491917	            1.019896	            1.099098	            0.019891	           -0.002394	            0.000050
            1.437500	          -17.407677	          223.494292	           23.188382	            0.179135	            0.000000	            0.226125	           -0.379504	            4.872386	            0.505529	           66.762278	          443.343283	           21.095358	           -0.208482	            0.000000	            0.242848	            0.231801	            1.539301	            0.073244	           17.633589	            1.152080	           -1.594739	            0.381630	            1.022288	            1.096427	           -0.083424	           -0.005450	            0.007545	          -12.283622	            1.498784	           -0.046116	           -0.491910	            1.019894	            1.099099	            0.020720	           -0.002528	            0.000078
            1.438000	          -17.444717	          223.785813	           23.185582	            0.179121	            0.000000	            0.226116	           -0.380194	            4.877233	            0.505311	           66.688733	          443.441331	           21.133281	           -0.208453	            0.000000	            0.242862	            0.230357	            1.531740	            0.072999	           17.646228	            1.147364	           -1.589122	            0.381631	            1.022281	            1.096426	           -0.083432	           -0.005425	            0.007513	          -12.288243	            1.518818	           -0.062294	           -0.491905	            1.019893	            1.099100	            0.021522	           -0.002660	            0.000109
            1.438500	          -17.481914	          224.076245	           23.182937	            0.179107	            0.000000	            0.226106	           -0.380874	            4.881898	            0.505081	           66.616353	          443.531511	           21.168297	           -0.208425	            0.000000	            0.242876	            0.228917	            1.524130	            0.072742	           17.659183	            1.142316	           -1.583763	            0.381633	            1.022274	            1.096424	           -0.083461	           -0.005399	            0.007485	          -12.294063	            1.537851	           -0.079197	           -0.491900	            1.019891	            1.099101	            0.022294	           -0.002789	            0.000144
            1.439000	          -17.519265	          224.365648	           23.180497	            0.179092	            0.000000	            0.226094	           -0.381546	            4.886382	            0.504840	           66.545227	          443.613894	           21.200257	           -0.208398	            0.000000	            0.242889	            0.227481	            1.516469	            0.072472	           17.672390	            1.136991	           -1.578655	            0.381635	            1.022267	            1.096423	           -0.083510	           -0.005373	            0.007460	          -12.301007	            1.555820	           -0.096689	           -0.491895	            1.019889	            1.099102	            0.023032	           -0.002913	            0.000181
            1.439500	          -17.556770	          224.654077	           23.178312	            0.179076	            0.000000	            0.226081	           -0.382208	            4.890685	            0.504588	           66.475435	          443.688567	           21.229030	           -0.208371	            0.000000	            0.242901	            0.226049	            1.508760	            0.072189	           17.685777	            1.131446	           -1.573790	            0.381636	            1.022259	            1.096421	           -0.083578	           -0.005347	            0.007437	          -12.308999	            1.572669	           -0.114627	           -0.491889	            1.019888	            1.099103	            0.023732	           -0.003032	            0.000221
            1.440000	          -17.594430	          224.941583	           23.176428	            0.179059	            0.000000	            0.226067	           -0.382861	            4.894809	            0.504327	           66.407047	          443.755636	           21.254507	           -0.208344	            0.000000	            0.242912	            0.224622	            1.501001	            0.071893	           17.699266	            1.125738	           -1.569153	            0.381638	            1.022252	            1.096420	           -0.083664	           -0.005321	            0.007417	          -12.317959	            1.588345	           -0.132857	           -0.491884	            1.019886	            1.099104	            0.024389	           -0.003145	            0.000263
            1.440500	          -17.632245	          225.228209	           23.174886	            0.179042	            0.000000	            0.226052	           -0.383504	            4.898754	            0.504058	           66.340120	          443.815222	           21.276599	           -0.208317	            0.000000	            0.242923	            0.223198	            1.493194	            0.071584	           17.712779	            1.119924	           -1.564690	            0.381638	            1.022245	            1.096419	           -0.083766	           -0.005296	            0.007400	          -12.327808	            1.602803	           -0.151191	           -0.491881	            1.019885	            1.099105	            0.024999	           -0.003250	            0.000307
            1.441000	          -17.670215	          225.513989	           23.173729	            0.179024	            0.000000	            0.226037	           -0.384139	            4.902522	            0.503781	           66.274701	          443.867465	           21.295245	           -0.208291	            0.000000	            0.242932	            0.221779	            1.485337	            0.071261	           17.726226	            1.114062	           -1.560421	            0.381639	            1.022239	            1.096417	           -0.083884	           -0.005272	            0.007384	          -12.338466	            1.616003	           -0.169496	           -0.491877	            1.019883	            1.099105	            0.025560	           -0.003348	            0.000351
            1.441500	          -17.708341	          225.798947	           23.172991	            0.179006	            0.000000	            0.226022	           -0.384763	            4.906114	            0.503498	           66.210823	          443.912524	           21.310406	           -0.208265	            0.000000	            0.242941	            0.220363	            1.477431	            0.070925	           17.739518	            1.108210	           -1.556327	            0.381639	            1.022232	            1.096416	           -0.084016	           -0.005249	            0.007371	          -12.349850	            1.627913	           -0.187607	           -0.491874	            1.019882	            1.099106	            0.026068	           -0.003436	            0.000396
            1.442000	          -17.746624	          226.083098	           23.172706	            0.178988	            0.000000	            0.226007	           -0.385379	            4.909533	            0.503209	           66.148509	          443.950577	           21.322066	           -0.208239	            0.000000	            0.242950	            0.218951	            1.469475	            0.070576	           17.752565	            1.102423	           -1.552384	            0.381640	            1.022225	            1.096414	           -0.084160	           -0.005226	            0.007359	          -12.361882	            1.638509	           -0.205353	           -0.491871	            1.019881	            1.099107	            0.026518	           -0.003515	            0.000441
            1.442500	          -17.785066	          226.366443	           23.172903	            0.178970	            0.000000	            0.225992	           -0.385985	            4.912781	            0.502916	           66.087769	          443.981820	           21.330240	           -0.208213	            0.000000	            0.242957	            0.217543	            1.461470	            0.070213	           17.765277	            1.096757	           -1.548572	            0.381641	            1.022218	            1.096413	           -0.084316	           -0.005205	            0.007350	          -12.374482	            1.647772	           -0.222567	           -0.491867	            1.019879	            1.099107	            0.026910	           -0.003583	            0.000484
